<svg id="Layer_1" data-name="Layer 1" xmlns="http://www.w3.org/2000/svg" viewBox="0 0 64 64"><title>bell.inline</title><path d="M23.17,3.17Q26.36,0,32,0t8.83,3.05Q44,6.11,44,11.71a22.74,22.74,0,0,1,9.22,10.92Q56,29.54,56,40l5.32,5.23Q64,48,64,50.46a4.79,4.79,0,0,1-2,4A8.39,8.39,0,0,1,56.86,56h-14a9.29,9.29,0,0,1-3.71,5.82,11.54,11.54,0,0,1-7,2.19,11,11,0,0,1-6.88-2.19A9.47,9.47,0,0,1,21.68,56H7.11A8.21,8.21,0,0,1,1.88,54.5a4.83,4.83,0,0,1-1.88-4q0-2.59,2.69-5.24L8,40q0-10,2.77-16.81A24.56,24.56,0,0,1,20,12Q20,6.34,23.17,3.17ZM36.4,7.61A5.93,5.93,0,0,0,32,6a5.94,5.94,0,0,0-4.4,1.6A6,6,0,0,0,26,12v2a1.35,1.35,0,0,1-.71,1.21,19.3,19.3,0,0,0-8.68,9.95Q14.06,31.65,14,42a1.78,1.78,0,0,1-.51,1.25l-6.17,5.5a1,1,0,0,0-.35.78q0,.47.9.47h18c.73,0,1,.39.93,1.18A15,15,0,0,0,26.71,53a4.83,4.83,0,0,0,1.44,3.61,5.44,5.44,0,0,0,4,1.41,6.1,6.1,0,0,0,4.13-1.37A4.69,4.69,0,0,0,37.88,53a7.57,7.57,0,0,0-.2-1.8q-.23-1.18.9-1.18H56.3q.87,0,.83-.59a1,1,0,0,0-.34-.66l-6.3-5.5A1.47,1.47,0,0,1,50,42q0-10.65-2.62-17.13a18.36,18.36,0,0,0-8.66-9.68A1.21,1.21,0,0,1,38,14V12A6,6,0,0,0,36.4,7.61Z"/></svg>