<svg id="Layer_1" data-name="Layer 1" xmlns="http://www.w3.org/2000/svg" viewBox="0 0 64 64"><title>channel-lock.inline</title><path d="M40.66,33.83a4.34,4.34,0,0,1,3.25,1.27,4.41,4.41,0,0,1,1.32,3.28V51.49a4.38,4.38,0,0,1-1.29,3.22A4.46,4.46,0,0,1,40.63,56h-23a4.58,4.58,0,0,1-3.31-1.27A4.35,4.35,0,0,1,13,51.49V38.38a4.39,4.39,0,0,1,1.28-3.22,4.52,4.52,0,0,1,3.29-1.33h.25V29.09A10.77,10.77,0,0,1,20.92,21a11.21,11.21,0,0,1,8.19-3,11.2,11.2,0,0,1,8.19,3,10.76,10.76,0,0,1,3.1,8.05v4.74Zm-18-4.73v4.73H35.56V29.1a6.23,6.23,0,0,0-1.79-4.58,6.45,6.45,0,0,0-4.65-1.76,6.45,6.45,0,0,0-4.65,1.76A6.23,6.23,0,0,0,22.67,29.1Z"/></svg>