<svg id="Layer_1" data-name="Layer 1" xmlns="http://www.w3.org/2000/svg" viewBox="0 0 64 64"><title>channel-hash.inline</title><path d="M44,28H39.27L36.85,40H42a2,2,0,0,1,1.45.54A2.11,2.11,0,0,1,44,42a1.83,1.83,0,0,1-.57,1.39A2.14,2.14,0,0,1,42,44h-6L34,54.18Q33.65,56,32.11,56a2,2,0,0,1-1.5-.55,1.76,1.76,0,0,1-.59-1.1,5.59,5.59,0,0,1,0-.7L32,44H24L22,54.28Q21.61,56,20.09,56a2.25,2.25,0,0,1-1.6-.63,1.71,1.71,0,0,1-.43-1.72L20,44H16a2.11,2.11,0,0,1-1.45-.58A2,2,0,0,1,14,42a1.93,1.93,0,0,1,.59-1.43A2.22,2.22,0,0,1,16,40h4.75l2.4-12H18.07a2.09,2.09,0,0,1-1.49-.55,2.07,2.07,0,0,1,0-2.89A2.1,2.1,0,0,1,18.07,24H24L26,13.72q.35-1.8,1.91-1.72a2,2,0,0,1,1.48.55A1.76,1.76,0,0,1,30,13.64a3.32,3.32,0,0,1,0,.7L28,24h8l2.06-10.28a1.9,1.9,0,0,1,2-1.72,1.93,1.93,0,0,1,1.42.55,1.58,1.58,0,0,1,.55,1.1,3.21,3.21,0,0,1,0,.71L40.07,24H44a2.09,2.09,0,0,1,1.48.55,2.19,2.19,0,0,1,0,2.89A2,2,0,0,1,44,28ZM32.79,40,35.2,28h-8L24.82,40Z"/></svg>