<svg id="Layer_1" data-name="Layer 1" xmlns="http://www.w3.org/2000/svg" viewBox="0 0 64 64"><title>edit.inline</title><path d="M46.28,5a7.88,7.88,0,0,1,5.77,2.41l4.54,4.54A7.88,7.88,0,0,1,59,17.72a7.82,7.82,0,0,1-2.38,5.74L29.24,50.84a5.72,5.72,0,0,1-2.09,1.33l-13.23,4.5a6.47,6.47,0,0,1-1.74.32,5.13,5.13,0,0,1-4.85-6.88l4.54-13.26a5.67,5.67,0,0,1,1.33-2.13L40.57,7.38A7.72,7.72,0,0,1,46.28,5Zm-29,34.07q-.73-.73-1.08.29l-4,11.71a.71.71,0,0,0,.06.73q.22.25.7.06l11.71-4q1-.38.25-1.11ZM37.4,17.4,20.52,34.31a.74.74,0,0,0,0,1.14l8,8.06a.74.74,0,0,0,1.14,0L46.56,26.6Zm8.88-7.52A3.17,3.17,0,0,0,44,10.8L40.85,14,50,23.18,53.16,20a3.15,3.15,0,0,0,1-2.32,3,3,0,0,0-1-2.28l-4.54-4.54A3.27,3.27,0,0,0,46.28,9.88Z"/></svg>