<svg id="Layer_1" data-name="Layer 1" xmlns="http://www.w3.org/2000/svg" viewBox="0 0 64 64"><title>gear.inline</title><path d="M33.43.4A7.13,7.13,0,0,1,37.75,2a7.64,7.64,0,0,1,2.72,3.83L41.53,9.5l.61.25L45.41,8A7.69,7.69,0,0,1,54.08,9.4l1.16,1.21a7.42,7.42,0,0,1,2,4.21,7.59,7.59,0,0,1-.68,4.63l-1.76,3.32.24.51,3.67,1.19a7.62,7.62,0,0,1,3.81,2.8A7.2,7.2,0,0,1,64,31.63V33.3a6.86,6.86,0,0,1-1.59,4.33,7.85,7.85,0,0,1-3.88,2.73l-3.67,1.09-.27.58,1.7,3.27a7.34,7.34,0,0,1,.65,4.6,7,7,0,0,1-2,4.09L53.7,55.16a7,7,0,0,1-4.18,1.94A7.65,7.65,0,0,1,45,56.37l-3.3-1.65-.51.2L40,58.47a7.83,7.83,0,0,1-7.15,5.15H31.18a7,7,0,0,1-4.32-1.53,7.61,7.61,0,0,1-2.72-3.75l-1.05-3.55-.61-.24-3.39,1.62a7.9,7.9,0,0,1-4.74.61,7.59,7.59,0,0,1-4.28-2L8.83,53.55a7.31,7.31,0,0,1-2.05-4.17,6.58,6.58,0,0,1,.8-4.51l1.91-3.25-.24-.51L5.48,39.92a7.82,7.82,0,0,1-3.92-2.8A7.07,7.07,0,0,1,0,32.76V31.09a6.74,6.74,0,0,1,1.63-4.33,8.1,8.1,0,0,1,4-2.73l3.78-1.09.31-.58L7.75,19a7,7,0,0,1-.66-4.62,7.32,7.32,0,0,1,2.09-4.17l1.24-1.17a7.85,7.85,0,0,1,4.35-2,7.48,7.48,0,0,1,4.71.74l3.43,1.78.51-.21q.44-1.19,1.19-3.58a7.38,7.38,0,0,1,2.79-3.87A7.51,7.51,0,0,1,31.77.4Zm-1.7,5.25a2.73,2.73,0,0,0-1.5.49,2.4,2.4,0,0,0-1,1.09L28,11.31a3.89,3.89,0,0,1-2.32,2.52l-1.26.51A4,4,0,0,1,21,14.18l-3.64-1.91a2.45,2.45,0,0,0-1.56-.2,2.27,2.27,0,0,0-1.39.61l-1.22,1.19a2.6,2.6,0,0,0-.65,1.4,2.55,2.55,0,0,0,.14,1.57l1.9,3.68a3.8,3.8,0,0,1,.08,3.41L14,25.22a3.75,3.75,0,0,1-2.55,2.25L7,28.7a2.4,2.4,0,0,0-1.16,1,3,3,0,0,0-.6,1.47v1.67a2.58,2.58,0,0,0,.53,1.5,2.55,2.55,0,0,0,1.19,1l4.44,1.23A3.88,3.88,0,0,1,14,38.86l.54,1.3a3.92,3.92,0,0,1-.17,3.38l-1.94,3.68a2.16,2.16,0,0,0-.22,1.53,2.58,2.58,0,0,0,.66,1.43L14,51.41a2.61,2.61,0,0,0,1.42.65A2.2,2.2,0,0,0,17,51.89L20.66,50a3.76,3.76,0,0,1,3.37-.1l1.29.55A3.8,3.8,0,0,1,27.61,53l1.22,3.9a2.09,2.09,0,0,0,1,1,3.71,3.71,0,0,0,1.43.52h1.67a2.92,2.92,0,0,0,1.5-.44,2.22,2.22,0,0,0,1-1L36.63,53A3.88,3.88,0,0,1,39,50.56L40.24,50a4,4,0,0,1,3.41.17l3.64,1.91a2.44,2.44,0,0,0,1.56.2,2.28,2.28,0,0,0,1.39-.61l1.22-1.19a2.6,2.6,0,0,0,.64-1.4,2.67,2.67,0,0,0-.13-1.6l-1.9-3.68a3.77,3.77,0,0,1-.1-3.38l.58-1.3A3.68,3.68,0,0,1,53,36.92l4-1.23a2.4,2.4,0,0,0,1.17-1,3.06,3.06,0,0,0,.6-1.5V31.6A2.95,2.95,0,0,0,57,29.11l-3.92-1.3a3.78,3.78,0,0,1-2.45-2.28l-.54-1.3a3.92,3.92,0,0,1,.17-3.38l1.94-3.68a2.38,2.38,0,0,0,.2-1.53,2.49,2.49,0,0,0-.65-1.43L50.61,13a2.61,2.61,0,0,0-1.43-.65,2.31,2.31,0,0,0-1.56.17L44,14.38a3.75,3.75,0,0,1-3.37.1l-1.29-.55A3.82,3.82,0,0,1,37,11.38L35.78,7.27a2.12,2.12,0,0,0-1-1.09,3.28,3.28,0,0,0-1.46-.53Zm-8,17.9A11.74,11.74,0,0,1,32.31,20,12.22,12.22,0,0,1,44.5,32.18a11.88,11.88,0,0,1-3.58,8.66,11.56,11.56,0,0,1-8.61,3.58,11.73,11.73,0,0,1-8.61-3.58,11.88,11.88,0,0,1-3.58-8.66A11.76,11.76,0,0,1,23.69,23.55ZM37.2,27.27a6.89,6.89,0,0,0-9.8,0,6.93,6.93,0,0,0,0,9.82,6.8,6.8,0,0,0,4.9,2.08,6.67,6.67,0,0,0,4.9-2,6.82,6.82,0,0,0,2-4.94A6.7,6.7,0,0,0,37.2,27.27Z"/></svg>