<svg id="Layer_1" data-name="Layer 1" xmlns="http://www.w3.org/2000/svg" viewBox="0 0 64 64"><title>mention.inline</title><path d="M52.44,46.23q-6.59,0-9.75-4.86a13.18,13.18,0,0,1-10.38,4.86,14.08,14.08,0,0,1-10.38-4.16A13.71,13.71,0,0,1,17.77,32a13.77,13.77,0,0,1,4.16-10.08,13.05,13.05,0,0,1,9.61-4.15,14.38,14.38,0,0,1,9.34,3.14v-.45a2.63,2.63,0,0,1,.8-1.92,2.59,2.59,0,0,1,1.91-.8,2.44,2.44,0,0,1,1.87.84,2.57,2.57,0,0,1,.76,1.89V34.67a6.1,6.1,0,0,0,1.7,4.51,6.24,6.24,0,0,0,4.62,1.7,5.11,5.11,0,0,0,4.51-2.39q1.6-2.39,1.6-7.18a24,24,0,0,0-2.12-9.65,26.34,26.34,0,0,0-14.2-14.2,26.32,26.32,0,0,0-20.69,0,26.34,26.34,0,0,0-14.2,14.2,26.41,26.41,0,0,0,0,20.72,25.9,25.9,0,0,0,14.2,14.16,27.88,27.88,0,0,0,11.11,2.12,24.86,24.86,0,0,0,12.18-3.33A3.1,3.1,0,0,1,46.47,55a2.36,2.36,0,0,1,1.7.76,2.91,2.91,0,0,1,.76,2.15A2.31,2.31,0,0,1,47.48,60l-.1.07a29.85,29.85,0,0,1-14.54,4,33.29,33.29,0,0,1-13.26-2.53,31.11,31.11,0,0,1-17-17,31.27,31.27,0,0,1,0-24.82A32,32,0,0,1,32,0,31.14,31.14,0,0,1,44.43,2.54a31.13,31.13,0,0,1,17,17.07A30.93,30.93,0,0,1,64,32q0,6.46-3.09,10.34A10.23,10.23,0,0,1,52.44,46.23ZM25.72,38.28a8.92,8.92,0,0,0,12.56,0,8.92,8.92,0,0,0,0-12.6,8.88,8.88,0,0,0-12.56,0,8.88,8.88,0,0,0,0,12.56Z"/></svg>