<svg id="Layer_1" data-name="Layer 1" xmlns="http://www.w3.org/2000/svg" viewBox="0 0 64 64"><title>new-channel.inline</title><path d="M32,0A31.36,31.36,0,0,1,44.41,2.54a31.21,31.21,0,0,1,17,17,31.7,31.7,0,0,1,0,24.87,31.07,31.07,0,0,1-17.05,17,31.65,31.65,0,0,1-24.84,0,31.21,31.21,0,0,1-17-17,31.8,31.8,0,0,1,0-24.9,31.35,31.35,0,0,1,17-17A31.12,31.12,0,0,1,32,0Zm0,6A25.35,25.35,0,0,0,21.92,8.08,25.54,25.54,0,0,0,8.08,21.88a25.75,25.75,0,0,0,0,20.21,25.32,25.32,0,0,0,13.8,13.82,25.61,25.61,0,0,0,20.18,0A25.51,25.51,0,0,0,55.92,42.08a25.56,25.56,0,0,0,0-20.15A26,26,0,0,0,32,6Zm-2.11,9.84A2.87,2.87,0,0,1,32,15a2.81,2.81,0,0,1,2.11.9A3.09,3.09,0,0,1,35,18V29H46a3.14,3.14,0,0,1,2.15.9A2.83,2.83,0,0,1,49,32a2.77,2.77,0,0,1-.94,2.12A2.86,2.86,0,0,1,46,35H35V46a2.79,2.79,0,0,1-.9,2.1A3,3,0,0,1,32,49a2.81,2.81,0,0,1-2.11-.9A3.09,3.09,0,0,1,29,46V35H18a3,3,0,0,1-2.15-.86A2.83,2.83,0,0,1,15,32a3,3,0,0,1,.9-2.16A2.79,2.79,0,0,1,18,29H29V18A3,3,0,0,1,29.87,15.85Z"/></svg>