<svg id="Layer_1" data-name="Layer 1" xmlns="http://www.w3.org/2000/svg" viewBox="0 0 64 64"><title>new-upload.inline</title><path d="M55.05,28.12a3.9,3.9,0,0,1,2.82,1.09A3.66,3.66,0,0,1,59,32a3.79,3.79,0,0,1-1.13,2.79,3.71,3.71,0,0,1-2.82,1.09H35.85V55a3.9,3.9,0,0,1-1.09,2.82,3.91,3.91,0,0,1-5.5,0A3.9,3.9,0,0,1,28.16,55V35.84H9a3.9,3.9,0,0,1-2.82-1.09A3.79,3.79,0,0,1,5,32a3.66,3.66,0,0,1,1.13-2.75A3.9,3.9,0,0,1,9,28.12H28.16V8.91a3.9,3.9,0,0,1,1.09-2.82A3.73,3.73,0,0,1,32,5a3.66,3.66,0,0,1,2.75,1.13,3.85,3.85,0,0,1,1.09,2.79V28.12Z"/></svg>