<svg id="Layer_1" data-name="Layer 1" xmlns="http://www.w3.org/2000/svg" viewBox="0 0 64 64"><title>phone.inline</title><path d="M30.64,18.7q0,3.62-4.83,8.42a41.2,41.2,0,0,0,5,5.87,61,61,0,0,0,6.53,5.68q4.11-3.54,5.63-4.15a8.63,8.63,0,0,1,3.31-.61q1.83,0,6,3.09a45.27,45.27,0,0,1,7.46,7Q63,47.85,63,50.13t-2.66,5.64a25.33,25.33,0,0,1-6.62,5.79A14.65,14.65,0,0,1,46,64a22.16,22.16,0,0,1-8.8-2.32Q27.38,57.22,17.35,47T2.83,27a21.69,21.69,0,0,1-2.25-8.5,14.83,14.83,0,0,1,2.29-7.4A25,25,0,0,1,8.53,4.35q3.4-2.79,5.83-2.79T20.68,5a46.59,46.59,0,0,1,6.94,7.56Q30.64,16.68,30.64,18.7ZM14.44,7.43q-1.07,0-3,1.94A20.77,20.77,0,0,0,7.93,13.9a10,10,0,0,0-1.48,5q0,2.36,2.06,6.67A48.32,48.32,0,0,0,14,34.21,88.68,88.68,0,0,0,30.33,50.63,51.34,51.34,0,0,0,39,56.08q4.3,2.06,6.74,2.06a9.7,9.7,0,0,0,5-1.52,20.86,20.86,0,0,0,4.49-3.5q1.94-2,1.94-3T54.8,46.48a37.1,37.1,0,0,0-5.17-4.57Q46.88,39.77,46,39.77a4.27,4.27,0,0,0-2.43,1.37Q42,42.51,40.23,43.89a5.35,5.35,0,0,1-3.16,1.37q-1.37,0-5.8-3.81a75.18,75.18,0,0,1-8.2-8.15Q19.3,29,19.3,27.5a5.39,5.39,0,0,1,1.37-3.2Q22,22.55,23.41,21a4.59,4.59,0,0,0,1.37-2.51q0-.91-2.13-3.66A43.79,43.79,0,0,0,18,9.79Q15.5,7.43,14.44,7.43Z"/></svg>