<svg id="Layer_1" data-name="Layer 1" xmlns="http://www.w3.org/2000/svg" viewBox="0 0 64 64"><title>plus.inline</title><path d="M52.05,29.6a2.52,2.52,0,0,1,1.72.73A2.28,2.28,0,0,1,54.5,32a2.23,2.23,0,0,1-.75,1.71,2.29,2.29,0,0,1-1.69.7H34.4V52.12a2.4,2.4,0,0,1-.73,1.69,2.46,2.46,0,0,1-3.41,0,2.3,2.3,0,0,1-.69-1.69V34.43H11.88a2.29,2.29,0,0,1-1.69-.7A2.33,2.33,0,0,1,9.5,32a2.44,2.44,0,0,1,.69-1.74,2.2,2.2,0,0,1,1.69-.7H29.57V11.95a2.4,2.4,0,0,1,.69-1.72A2.28,2.28,0,0,1,32,9.5a2.34,2.34,0,0,1,1.74.75,2.15,2.15,0,0,1,.69,1.69V29.6Z"/></svg>