<svg id="Layer_1" data-name="Layer 1" xmlns="http://www.w3.org/2000/svg" viewBox="0 0 64 64"><title>quick-switcher.inline</title><path d="M23.19,21.31a2.45,2.45,0,0,1,2.44,2.44,2.2,2.2,0,0,1-.75,1.69,2.29,2.29,0,0,1-1.69.69H2.41a2.28,2.28,0,0,1-1.72-.72A2.4,2.4,0,0,1,0,23.69,2.24,2.24,0,0,1,.72,22a2.36,2.36,0,0,1,1.69-.69ZM2.41,38.94a2.28,2.28,0,0,1-1.72-.72A2.4,2.4,0,0,1,0,36.5a2.24,2.24,0,0,1,.72-1.69,2.36,2.36,0,0,1,1.69-.69h16a2.28,2.28,0,0,1,1.72.72,2.4,2.4,0,0,1,.69,1.72,2.24,2.24,0,0,1-.72,1.69,2.36,2.36,0,0,1-1.69.69Zm20.78,8a2.39,2.39,0,0,1,1.72.69,2.26,2.26,0,0,1,.72,1.7A2.32,2.32,0,0,1,24.88,51a2.14,2.14,0,0,1-1.69.69H2.41A2.43,2.43,0,0,1,.69,51,2.32,2.32,0,0,1,0,49.3a2.26,2.26,0,0,1,.72-1.7,2.36,2.36,0,0,1,1.69-.69ZM2.42,13.31A2.32,2.32,0,0,1,.7,12.62,2.31,2.31,0,0,1,0,10.92,2.36,2.36,0,0,1,.73,9.19,2.19,2.19,0,0,1,2.42,8.5H47.2a2.52,2.52,0,0,1,1.72.72,2.27,2.27,0,0,1,.72,1.7,2.22,2.22,0,0,1-.75,1.7,2.29,2.29,0,0,1-1.69.69ZM64,52.5a2.33,2.33,0,0,1-.75,1.69,2.28,2.28,0,0,1-3.44-.06l-5.28-5.29a15.27,15.27,0,0,1-14.84,1.7,14.7,14.7,0,0,1-8.1-8.1,15.27,15.27,0,0,1,0-11.81,14.78,14.78,0,0,1,8.22-8.12,14.32,14.32,0,0,1,11.59,0,15,15,0,0,1,8.19,8.15,15.41,15.41,0,0,1,1.22,5.9,14.86,14.86,0,0,1-2.91,8.9l5.28,5.3A2.49,2.49,0,0,1,64,52.5ZM38.28,29.19a10.33,10.33,0,0,0,0,14.67,10.34,10.34,0,0,0,14.67,0,10.32,10.32,0,0,0,0-14.67,10.31,10.31,0,0,0-14.67,0Z"/></svg>