<svg id="Layer_1" data-name="Layer 1" xmlns="http://www.w3.org/2000/svg" viewBox="0 0 64 64"><title>sidebar.inline</title><path d="M55.19,5a8.61,8.61,0,0,1,6.25,2.59A8.47,8.47,0,0,1,64,13.81V50.59a8.75,8.75,0,0,1-8.81,8.81H8.81a8.57,8.57,0,0,1-6.25-2.56A8.5,8.5,0,0,1,0,50.59V13.81A8.47,8.47,0,0,1,2.56,7.59,8.61,8.61,0,0,1,8.81,5ZM9.59,9.81q-4.78,0-4.78,4.78V49.81q0,4.78,4.78,4.78H32V9.81ZM54.41,54.59q4.78,0,4.78-4.78V14.59q0-4.78-4.78-4.78H36.81V54.59ZM52,17.78a2.26,2.26,0,0,1,1.75.66,2.6,2.6,0,0,1,0,3.52,2.17,2.17,0,0,1-1.75.63H44a2.36,2.36,0,0,1-1.75-.69,2.32,2.32,0,0,1-.69-1.7,2.39,2.39,0,0,1,.69-1.76A2.26,2.26,0,0,1,44,17.78Zm0,9.63a2.35,2.35,0,0,1,2.44,2.44,2.17,2.17,0,0,1-.69,1.69,2.37,2.37,0,0,1-1.75.69H44a2.35,2.35,0,0,1-2.44-2.44,2.17,2.17,0,0,1,.69-1.69A2.37,2.37,0,0,1,44,27.41ZM52,37a2.37,2.37,0,0,1,1.75.69,2.27,2.27,0,0,1,.69,1.72,2.37,2.37,0,0,1-.69,1.75,2.27,2.27,0,0,1-1.75.66H44a2.37,2.37,0,0,1-1.75-.69,2.27,2.27,0,0,1-.69-1.72,2.37,2.37,0,0,1,.69-1.75A2.27,2.27,0,0,1,44,37Z"/></svg>