<svg id="Layer_1" data-name="Layer 1" xmlns="http://www.w3.org/2000/svg" viewBox="0 0 64 64"><title>user.inline</title><path d="M54,50.94a6.21,6.21,0,0,1-1.87,4.48,6.06,6.06,0,0,1-4.45,1.84H16.32a6.06,6.06,0,0,1-4.45-1.84A6.21,6.21,0,0,1,10,50.94q0-4.36,4.3-8.1a24.56,24.56,0,0,1,10.89-5.25A18.3,18.3,0,0,1,19.88,31a18.65,18.65,0,0,1-2-8.32,16.9,16.9,0,0,1,3.84-11.35A12.73,12.73,0,0,1,32,7a13,13,0,0,1,10.31,4.36q3.8,4.36,3.84,11.35A19,19,0,0,1,44.09,31a18,18,0,0,1-5.28,6.57A24.31,24.31,0,0,1,49.7,42.81Q54,46.55,54,50.94Zm-6.32,1.6a1.57,1.57,0,0,0,1.6-1.6A6.28,6.28,0,0,0,47,46.37a17.44,17.44,0,0,0-6.29-3.47A27,27,0,0,0,32,41.55a27.31,27.31,0,0,0-8.74,1.35A16.83,16.83,0,0,0,17,46.4a6.14,6.14,0,0,0-2.24,4.54,1.57,1.57,0,0,0,1.6,1.6ZM22.58,22.71a13.91,13.91,0,0,0,1.29,5.71,14.38,14.38,0,0,0,3.5,4.88,6.91,6.91,0,0,0,4.63,2,7,7,0,0,0,4.66-2,13.79,13.79,0,0,0,3.5-4.91,14.21,14.21,0,0,0,1.26-5.65A12.36,12.36,0,0,0,39,14.76a8.48,8.48,0,0,0-7-3,8.52,8.52,0,0,0-7,3A12.25,12.25,0,0,0,22.58,22.71Z"/></svg>